<svg xmlns="http://www.w3.org/2000/svg" xmlns:xlink="http://www.w3.org/1999/xlink" width="1296" zoomAndPan="magnify" viewBox="0 0 972 425.249996" height="567" preserveAspectRatio="xMidYMid meet" version="1.0"><defs><g/></defs><g fill="#ffffff" fill-opacity="1"><g transform="translate(46.279434, 416.856908)"><g><path d="M 81.859375 -216.109375 C 94.492188 -208.796875 100.8125 -196.816406 100.8125 -180.171875 L 100.8125 -48.40625 C 100.8125 -32.769531 96.566406 -20.789062 88.078125 -12.46875 C 79.597656 -4.15625 68.039062 0 53.40625 0 L 9.984375 0 L 9.984375 -409.765625 L 52.90625 -409.765625 C 67.539062 -409.765625 79.101562 -405.601562 87.59375 -397.28125 C 96.082031 -388.96875 100.328125 -376.992188 100.328125 -361.359375 L 100.328125 -251.046875 C 100.328125 -235.078125 94.171875 -223.429688 81.859375 -216.109375 Z M 43.921875 -377.828125 L 43.921875 -231.59375 L 52.90625 -231.59375 C 56.894531 -231.59375 60.050781 -233.003906 62.375 -235.828125 C 64.707031 -238.660156 65.875 -242.738281 65.875 -248.0625 L 65.875 -361.859375 C 65.875 -366.847656 64.707031 -370.753906 62.375 -373.578125 C 60.050781 -376.410156 56.894531 -377.828125 52.90625 -377.828125 Z M 66.375 -183.171875 C 66.375 -188.492188 65.207031 -192.648438 62.875 -195.640625 C 60.550781 -198.640625 57.394531 -200.140625 53.40625 -200.140625 L 43.921875 -200.140625 L 43.921875 -31.9375 L 53.40625 -31.9375 C 57.394531 -31.9375 60.550781 -33.347656 62.875 -36.171875 C 65.207031 -39.003906 66.375 -42.921875 66.375 -47.921875 Z M 66.375 -183.171875 "/></g></g></g><g fill="#ffffff" fill-opacity="1"><g transform="translate(169.560677, 416.856908)"><g><path d="M 9.984375 -409.765625 L 43.921875 -409.765625 L 43.921875 0 L 9.984375 0 Z M 9.984375 -409.765625 "/></g></g></g><g fill="#ffffff" fill-opacity="1"><g transform="translate(238.438566, 416.856908)"><g><path d="M 100.8125 -409.765625 L 100.8125 0 L 66.875 0 L 66.875 -194.65625 L 43.921875 -194.65625 L 43.921875 0 L 9.984375 0 L 9.984375 -409.765625 L 43.921875 -409.765625 L 43.921875 -227.59375 L 66.875 -227.59375 L 66.875 -409.765625 Z M 100.8125 -409.765625 "/></g></g></g><g fill="#ffffff" fill-opacity="1"><g transform="translate(364.215426, 416.856908)"><g><path d="M 66.375 -122.78125 L 43.921875 -122.78125 L 38.9375 0 L 2 0 L 32.4375 -409.765625 L 77.859375 -409.765625 L 108.3125 0 L 71.375 0 Z M 64.890625 -155.71875 L 55.90625 -371.34375 L 53.90625 -371.34375 L 45.421875 -155.71875 Z M 64.890625 -155.71875 "/></g></g></g><g fill="#ffffff" fill-opacity="1"><g transform="translate(489.493243, 416.856908)"><g><path d="M 9.984375 -409.765625 L 54.40625 -409.765625 L 84.84375 -73.375 L 86.84375 -73.375 L 81.859375 -409.765625 L 113.796875 -409.765625 L 113.796875 0 L 69.375 0 L 38.9375 -338.390625 L 36.9375 -338.390625 L 41.921875 0 L 9.984375 0 Z M 9.984375 -409.765625 "/></g></g></g><g fill="#ffffff" fill-opacity="1"><g transform="translate(628.247085, 416.856908)"><g><path d="M 25.953125 -413.265625 C 32.273438 -413.265625 37.429688 -411.015625 41.421875 -406.515625 C 45.421875 -402.023438 47.421875 -395.957031 47.421875 -388.3125 C 47.421875 -376.664062 44.671875 -365.847656 39.171875 -355.859375 C 33.679688 -345.878906 25.78125 -337.894531 15.46875 -331.90625 L 9.484375 -336.90625 C 18.796875 -348.550781 23.785156 -360.859375 24.453125 -373.828125 C 23.785156 -373.492188 22.789062 -373.328125 21.46875 -373.328125 C 16.800781 -373.328125 12.882812 -375.070312 9.71875 -378.5625 C 6.5625 -382.0625 4.984375 -386.640625 4.984375 -392.296875 C 4.984375 -397.953125 6.976562 -402.859375 10.96875 -407.015625 C 14.96875 -411.179688 19.960938 -413.265625 25.953125 -413.265625 Z M 25.953125 -413.265625 "/></g></g></g><g fill="#ffffff" fill-opacity="1"><g transform="translate(696.126692, 416.856908)"><g><path d="M 98.828125 -326.921875 C 98.828125 -312.609375 97.410156 -296.382812 94.578125 -278.25 C 91.753906 -260.113281 87.515625 -235.410156 81.859375 -204.140625 L 46.921875 -32.9375 L 96.328125 -32.9375 L 96.328125 0 L 5.484375 0 L 48.40625 -211.125 C 59.0625 -265.695312 64.390625 -304.296875 64.390625 -326.921875 L 64.390625 -364.34375 C 64.390625 -369.34375 63.390625 -373.085938 61.390625 -375.578125 C 59.390625 -378.078125 56.5625 -379.328125 52.90625 -379.328125 C 49.25 -379.328125 46.421875 -378.078125 44.421875 -375.578125 C 42.421875 -373.085938 41.421875 -369.34375 41.421875 -364.34375 L 41.421875 -273.015625 L 7.484375 -273.015625 L 7.484375 -365.84375 C 7.484375 -380.820312 11.472656 -392.46875 19.453125 -400.78125 C 27.441406 -409.101562 38.59375 -413.265625 52.90625 -413.265625 C 67.21875 -413.265625 78.445312 -409.101562 86.59375 -400.78125 C 94.75 -392.46875 98.828125 -380.820312 98.828125 -365.84375 Z M 98.828125 -326.921875 "/></g></g></g><g fill="#ffffff" fill-opacity="1"><g transform="translate(816.41332, 416.856908)"><g><path d="M 43.921875 -376.828125 L 43.921875 -243.0625 C 50.242188 -250.050781 58.0625 -253.546875 67.375 -253.546875 C 78.019531 -253.546875 86.253906 -250.050781 92.078125 -243.0625 C 97.898438 -236.070312 100.8125 -225.59375 100.8125 -211.625 L 100.8125 -43.921875 C 100.8125 -28.953125 96.734375 -17.304688 88.578125 -8.984375 C 80.429688 -0.660156 69.375 3.5 55.40625 3.5 C 41.09375 3.5 29.941406 -0.660156 21.953125 -8.984375 C 13.972656 -17.304688 9.984375 -28.953125 9.984375 -43.921875 L 9.984375 -136.75 L 43.921875 -136.75 L 43.921875 -45.421875 C 43.921875 -40.429688 44.914062 -36.6875 46.90625 -34.1875 C 48.90625 -31.695312 51.738281 -30.453125 55.40625 -30.453125 C 59.0625 -30.453125 61.882812 -31.695312 63.875 -34.1875 C 65.875 -36.6875 66.875 -40.429688 66.875 -45.421875 L 66.875 -206.625 C 66.875 -211.625 65.875 -215.367188 63.875 -217.859375 C 61.882812 -220.359375 59.0625 -221.609375 55.40625 -221.609375 C 51.738281 -221.609375 48.90625 -220.359375 46.90625 -217.859375 C 44.914062 -215.367188 43.921875 -211.625 43.921875 -206.625 L 43.921875 -194.65625 L 9.984375 -194.65625 L 9.984375 -409.765625 L 100.8125 -409.765625 L 100.8125 -376.828125 Z M 43.921875 -376.828125 "/></g></g></g></svg>