<svg xmlns="http://www.w3.org/2000/svg" xmlns:xlink="http://www.w3.org/1999/xlink" width="1296" zoomAndPan="magnify" viewBox="0 0 972 425.249996" height="567" preserveAspectRatio="xMidYMid meet" version="1.0"><defs><g/></defs><g fill="#ffffff" fill-opacity="1"><g transform="translate(19.713005, 399.420533)"><g><path d="M 113.203125 -228.1875 C 113.203125 -221.007812 111.703125 -214.648438 108.703125 -209.109375 C 105.710938 -203.566406 101.519531 -199 96.125 -195.40625 C 101.519531 -191.8125 105.710938 -187.242188 108.703125 -181.703125 C 111.703125 -176.160156 113.203125 -169.796875 113.203125 -162.609375 L 113.203125 -51.203125 C 113.203125 -35.035156 108.332031 -22.457031 98.59375 -13.46875 C 88.863281 -4.488281 75.765625 0 59.296875 0 L 4.9375 0 L 4.9375 -368.796875 L 59.296875 -368.796875 C 75.765625 -368.796875 88.863281 -364.378906 98.59375 -355.546875 C 108.332031 -346.710938 113.203125 -334.0625 113.203125 -317.59375 Z M 54.796875 -322.984375 L 54.796875 -218.3125 L 59.296875 -218.3125 C 60.492188 -218.3125 61.46875 -218.757812 62.21875 -219.65625 C 62.96875 -220.5625 63.34375 -221.757812 63.34375 -223.25 L 63.34375 -318.03125 C 63.34375 -319.53125 62.96875 -320.726562 62.21875 -321.625 C 61.46875 -322.53125 60.492188 -322.984375 59.296875 -322.984375 Z M 63.34375 -167.546875 C 63.34375 -169.046875 62.96875 -170.242188 62.21875 -171.140625 C 61.46875 -172.046875 60.492188 -172.5 59.296875 -172.5 L 54.796875 -172.5 L 54.796875 -45.8125 L 59.296875 -45.8125 C 60.492188 -45.8125 61.46875 -46.257812 62.21875 -47.15625 C 62.96875 -48.0625 63.34375 -49.265625 63.34375 -50.765625 Z M 63.34375 -167.546875 "/></g></g></g><g fill="#ffffff" fill-opacity="1"><g transform="translate(149.533849, 399.420533)"><g><path d="M 4.9375 -368.796875 L 54.796875 -368.796875 L 54.796875 0 L 4.9375 0 Z M 4.9375 -368.796875 "/></g></g></g><g fill="#ffffff" fill-opacity="1"><g transform="translate(222.754539, 399.420533)"><g><path d="M 112.75 -368.796875 L 112.75 0 L 62.890625 0 L 62.890625 -165.75 L 54.796875 -165.75 L 54.796875 0 L 4.9375 0 L 4.9375 -368.796875 L 54.796875 -368.796875 L 54.796875 -213.375 L 62.890625 -213.375 L 62.890625 -368.796875 Z M 112.75 -368.796875 "/></g></g></g><g fill="#ffffff" fill-opacity="1"><g transform="translate(353.923022, 399.420533)"><g><path d="M 65.140625 -93.890625 L 56.15625 -93.890625 L 54.796875 0 L 0 0 L 30.546875 -368.796875 L 90.734375 -368.796875 L 121.28125 0 L 66.484375 0 Z M 64.234375 -141.5 L 61.984375 -308.15625 L 59.296875 -308.15625 L 57.046875 -141.5 Z M 64.234375 -141.5 "/></g></g></g><g fill="#ffffff" fill-opacity="1"><g transform="translate(488.685107, 399.420533)"><g><path d="M 4.9375 -368.796875 L 62.4375 -368.796875 L 83.109375 -129.8125 L 85.796875 -129.8125 L 78.15625 -368.796875 L 124.421875 -368.796875 L 124.421875 0 L 66.9375 0 L 46.265625 -238.96875 L 43.578125 -238.96875 L 51.203125 0 L 4.9375 0 Z M 4.9375 -368.796875 "/></g></g></g><g fill="#ffffff" fill-opacity="1"><g transform="translate(631.533013, 399.420533)"><g><path d="M 32.34375 -372.390625 C 40.425781 -372.390625 47.238281 -369.539062 52.78125 -363.84375 C 58.320312 -358.15625 61.09375 -350.519531 61.09375 -340.9375 C 61.09375 -328.0625 57.347656 -317.207031 49.859375 -308.375 C 42.367188 -299.539062 31.585938 -293.628906 17.515625 -290.640625 L 16.171875 -294.234375 C 20.359375 -298.421875 23.347656 -302.460938 25.140625 -306.359375 C 26.941406 -310.253906 27.992188 -314.296875 28.296875 -318.484375 L 26.046875 -318.484375 C 19.765625 -318.484375 14.453125 -320.878906 10.109375 -325.671875 C 5.765625 -330.460938 3.59375 -336.453125 3.59375 -343.640625 C 3.59375 -351.722656 6.363281 -358.535156 11.90625 -364.078125 C 17.445312 -369.617188 24.257812 -372.390625 32.34375 -372.390625 Z M 32.34375 -372.390625 "/></g></g></g><g fill="#ffffff" fill-opacity="1"><g transform="translate(709.695038, 399.420533)"><g><path d="M 110.953125 -273.109375 C 110.953125 -259.035156 109.15625 -243.015625 105.5625 -225.046875 C 101.96875 -207.078125 97.625 -187.460938 92.53125 -166.203125 L 62.4375 -47.609375 L 106.015625 -47.609375 L 106.015625 0 L 0 0 L 44.46875 -176.09375 C 48.664062 -191.664062 52.484375 -208.734375 55.921875 -227.296875 C 59.367188 -245.859375 61.09375 -261.128906 61.09375 -273.109375 L 61.09375 -319.390625 C 61.09375 -322.378906 59.59375 -323.875 56.59375 -323.875 C 55.394531 -323.875 54.421875 -323.425781 53.671875 -322.53125 C 52.929688 -321.632812 52.5625 -320.585938 52.5625 -319.390625 L 52.5625 -238.53125 L 2.6875 -238.53125 L 2.6875 -321.1875 C 2.6875 -337.351562 7.476562 -349.925781 17.0625 -358.90625 C 26.644531 -367.894531 39.820312 -372.390625 56.59375 -372.390625 C 73.363281 -372.390625 86.613281 -367.894531 96.34375 -358.90625 C 106.082031 -349.925781 110.953125 -337.351562 110.953125 -321.1875 Z M 110.953125 -273.109375 "/></g></g></g><g fill="#ffffff" fill-opacity="1"><g transform="translate(836.371489, 399.420533)"><g><path d="M 76.8125 -234.484375 C 88.195312 -234.484375 97.03125 -230.960938 103.3125 -223.921875 C 109.601562 -216.890625 112.75 -206.035156 112.75 -191.359375 L 112.75 -47.609375 C 112.75 -31.441406 107.878906 -18.863281 98.140625 -9.875 C 88.410156 -0.894531 75.3125 3.59375 58.84375 3.59375 C 42.070312 3.59375 28.894531 -0.894531 19.3125 -9.875 C 9.726562 -18.863281 4.9375 -31.441406 4.9375 -47.609375 L 4.9375 -130.265625 L 54.796875 -130.265625 L 54.796875 -49.40625 C 54.796875 -48.207031 55.171875 -47.160156 55.921875 -46.265625 C 56.671875 -45.367188 57.644531 -44.921875 58.84375 -44.921875 C 60.039062 -44.921875 61.015625 -45.367188 61.765625 -46.265625 C 62.515625 -47.160156 62.890625 -48.207031 62.890625 -49.40625 L 62.890625 -184.625 C 62.890625 -185.820312 62.515625 -186.867188 61.765625 -187.765625 C 61.015625 -188.660156 60.039062 -189.109375 58.84375 -189.109375 C 57.644531 -189.109375 56.671875 -188.660156 55.921875 -187.765625 C 55.171875 -186.867188 54.796875 -185.820312 54.796875 -184.625 L 54.796875 -172.046875 L 4.9375 -172.046875 L 4.9375 -368.796875 L 109.609375 -368.796875 L 109.609375 -321.1875 L 54.796875 -321.1875 L 54.796875 -226.390625 C 61.085938 -231.785156 68.425781 -234.484375 76.8125 -234.484375 Z M 76.8125 -234.484375 "/></g></g></g></svg>