<svg xmlns="http://www.w3.org/2000/svg" xmlns:xlink="http://www.w3.org/1999/xlink" width="1296" zoomAndPan="magnify" viewBox="0 0 972 425.249996" height="567" preserveAspectRatio="xMidYMid meet" version="1.0"><defs><g/></defs><g fill="#ffffff" fill-opacity="1"><g transform="translate(11.629602, 378.830556)"><g><path d="M 100.625 -202.84375 C 100.625 -196.457031 99.289062 -190.800781 96.625 -185.875 C 93.96875 -180.945312 90.242188 -176.882812 85.453125 -173.6875 C 90.242188 -170.5 93.96875 -166.441406 96.625 -161.515625 C 99.289062 -156.585938 100.625 -150.929688 100.625 -144.546875 L 100.625 -45.515625 C 100.625 -31.140625 96.296875 -19.957031 87.640625 -11.96875 C 78.992188 -3.988281 67.347656 0 52.703125 0 L 4.390625 0 L 4.390625 -327.828125 L 52.703125 -327.828125 C 67.347656 -327.828125 78.992188 -323.898438 87.640625 -316.046875 C 96.296875 -308.191406 100.625 -296.941406 100.625 -282.296875 Z M 48.71875 -287.09375 L 48.71875 -194.0625 L 52.703125 -194.0625 C 53.765625 -194.0625 54.628906 -194.457031 55.296875 -195.25 C 55.960938 -196.050781 56.296875 -197.117188 56.296875 -198.453125 L 56.296875 -282.703125 C 56.296875 -284.035156 55.960938 -285.097656 55.296875 -285.890625 C 54.628906 -286.691406 53.765625 -287.09375 52.703125 -287.09375 Z M 56.296875 -148.9375 C 56.296875 -150.269531 55.960938 -151.332031 55.296875 -152.125 C 54.628906 -152.925781 53.765625 -153.328125 52.703125 -153.328125 L 48.71875 -153.328125 L 48.71875 -40.734375 L 52.703125 -40.734375 C 53.765625 -40.734375 54.628906 -41.128906 55.296875 -41.921875 C 55.960938 -42.722656 56.296875 -43.789062 56.296875 -45.125 Z M 56.296875 -148.9375 "/></g></g></g><g fill="#ffffff" fill-opacity="1"><g transform="translate(127.025251, 378.830556)"><g><path d="M 4.390625 -327.828125 L 48.71875 -327.828125 L 48.71875 0 L 4.390625 0 Z M 4.390625 -327.828125 "/></g></g></g><g fill="#ffffff" fill-opacity="1"><g transform="translate(192.109979, 378.830556)"><g><path d="M 100.21875 -327.828125 L 100.21875 0 L 55.90625 0 L 55.90625 -147.34375 L 48.71875 -147.34375 L 48.71875 0 L 4.390625 0 L 4.390625 -327.828125 L 48.71875 -327.828125 L 48.71875 -189.671875 L 55.90625 -189.671875 L 55.90625 -327.828125 Z M 100.21875 -327.828125 "/></g></g></g><g fill="#ffffff" fill-opacity="1"><g transform="translate(308.703531, 378.830556)"><g><path d="M 57.890625 -83.453125 L 49.90625 -83.453125 L 48.71875 0 L 0 0 L 27.15625 -327.828125 L 80.65625 -327.828125 L 107.8125 0 L 59.09375 0 Z M 57.09375 -125.78125 L 55.109375 -273.921875 L 52.703125 -273.921875 L 50.703125 -125.78125 Z M 57.09375 -125.78125 "/></g></g></g><g fill="#ffffff" fill-opacity="1"><g transform="translate(428.491389, 378.830556)"><g><path d="M 57.890625 -83.453125 L 49.90625 -83.453125 L 48.71875 0 L 0 0 L 27.15625 -327.828125 L 80.65625 -327.828125 L 107.8125 0 L 59.09375 0 Z M 57.09375 -125.78125 L 55.109375 -273.921875 L 52.703125 -273.921875 L 50.703125 -125.78125 Z M 57.09375 -125.78125 "/></g></g></g><g fill="#ffffff" fill-opacity="1"><g transform="translate(548.279201, 378.830556)"><g><path d="M 4.390625 -327.828125 L 55.5 -327.828125 L 73.875 -115.390625 L 76.265625 -115.390625 L 69.484375 -327.828125 L 110.609375 -327.828125 L 110.609375 0 L 59.5 0 L 41.125 -212.421875 L 38.734375 -212.421875 L 45.515625 0 L 4.390625 0 Z M 4.390625 -327.828125 "/></g></g></g><g fill="#ffffff" fill-opacity="1"><g transform="translate(675.254412, 378.830556)"><g><path d="M 28.75 -331.015625 C 35.9375 -331.015625 41.988281 -328.484375 46.90625 -323.421875 C 51.832031 -318.367188 54.296875 -311.582031 54.296875 -303.0625 C 54.296875 -291.613281 50.96875 -281.960938 44.3125 -274.109375 C 37.664062 -266.265625 28.085938 -261.007812 15.578125 -258.34375 L 14.375 -261.546875 C 18.101562 -265.265625 20.765625 -268.851562 22.359375 -272.3125 C 23.953125 -275.78125 24.882812 -279.375 25.15625 -283.09375 L 23.15625 -283.09375 C 17.570312 -283.09375 12.847656 -285.222656 8.984375 -289.484375 C 5.117188 -293.742188 3.1875 -299.070312 3.1875 -305.46875 C 3.1875 -312.65625 5.648438 -318.707031 10.578125 -323.625 C 15.503906 -328.550781 21.5625 -331.015625 28.75 -331.015625 Z M 28.75 -331.015625 "/></g></g></g><g fill="#ffffff" fill-opacity="1"><g transform="translate(744.731407, 378.830556)"><g><path d="M 98.625 -242.765625 C 98.625 -230.253906 97.023438 -216.015625 93.828125 -200.046875 C 90.640625 -184.078125 86.78125 -166.640625 82.25 -147.734375 L 55.5 -42.328125 L 94.234375 -42.328125 L 94.234375 0 L 0 0 L 39.53125 -156.53125 C 43.257812 -170.363281 46.648438 -185.53125 49.703125 -202.03125 C 52.765625 -218.539062 54.296875 -232.117188 54.296875 -242.765625 L 54.296875 -283.90625 C 54.296875 -286.5625 52.96875 -287.890625 50.3125 -287.890625 C 49.25 -287.890625 48.382812 -287.488281 47.71875 -286.6875 C 47.050781 -285.894531 46.71875 -284.96875 46.71875 -283.90625 L 46.71875 -212.03125 L 2.390625 -212.03125 L 2.390625 -285.5 C 2.390625 -299.875 6.648438 -311.050781 15.171875 -319.03125 C 23.691406 -327.019531 35.40625 -331.015625 50.3125 -331.015625 C 65.21875 -331.015625 76.992188 -327.019531 85.640625 -319.03125 C 94.296875 -311.050781 98.625 -299.875 98.625 -285.5 Z M 98.625 -242.765625 "/></g></g></g><g fill="#ffffff" fill-opacity="1"><g transform="translate(857.332051, 378.830556)"><g><path d="M 68.28125 -208.4375 C 78.394531 -208.4375 86.242188 -205.304688 91.828125 -199.046875 C 97.421875 -192.796875 100.21875 -183.144531 100.21875 -170.09375 L 100.21875 -42.328125 C 100.21875 -27.953125 95.890625 -16.769531 87.234375 -8.78125 C 78.585938 -0.800781 66.945312 3.1875 52.3125 3.1875 C 37.40625 3.1875 25.691406 -0.800781 17.171875 -8.78125 C 8.648438 -16.769531 4.390625 -27.953125 4.390625 -42.328125 L 4.390625 -115.796875 L 48.71875 -115.796875 L 48.71875 -43.921875 C 48.71875 -42.859375 49.046875 -41.925781 49.703125 -41.125 C 50.367188 -40.320312 51.238281 -39.921875 52.3125 -39.921875 C 53.375 -39.921875 54.238281 -40.320312 54.90625 -41.125 C 55.570312 -41.925781 55.90625 -42.859375 55.90625 -43.921875 L 55.90625 -164.109375 C 55.90625 -165.171875 55.570312 -166.101562 54.90625 -166.90625 C 54.238281 -167.707031 53.375 -168.109375 52.3125 -168.109375 C 51.238281 -168.109375 50.367188 -167.707031 49.703125 -166.90625 C 49.046875 -166.101562 48.71875 -165.171875 48.71875 -164.109375 L 48.71875 -152.9375 L 4.390625 -152.9375 L 4.390625 -327.828125 L 97.421875 -327.828125 L 97.421875 -285.5 L 48.71875 -285.5 L 48.71875 -201.25 C 54.300781 -206.039062 60.820312 -208.4375 68.28125 -208.4375 Z M 68.28125 -208.4375 "/></g></g></g></svg>